<?xml version="1.0" standalone="no"?>
<!DOCTYPE svg PUBLIC "-//W3C//DTD SVG 1.1//EN" "http://www.w3.org/Graphics/SVG/1.1/DTD/svg11.dtd" >
<!--
2013-9-30: Created.
-->
<svg>
<metadata>
Created by iconfont
</metadata>
<defs>

<font id="iconfont" horiz-adv-x="1024" >
  <font-face
    font-family="iconfont"
    font-weight="500"
    font-stretch="normal"
    units-per-em="1024"
    ascent="896"
    descent="-128"
  />
    <missing-glyph />
    
    <glyph glyph-name="infonointernet" unicode="&#59395;" d="M435.794 114.28c0-32.784 26.912-59.424 59.968-59.424s59.968 26.64 59.968 59.424c0 32.784-26.912 59.424-59.968 59.424S435.794 147.064 435.794 114.28zM731.202 167c0-13.264 10.656-24 24-24 13.248 0 24 10.656 24 24 0 13.248-10.656 24-24 24C741.938 191 731.202 180.344 731.202 167zM731.202 407.08l0-144.144c0-13.216 10.656-23.936 24-23.936 13.248 0 24 10.88 24 23.936L779.202 407.08c0 13.2-10.656 23.92-24 23.92C741.938 431 731.202 420.12 731.202 407.08zM568.002 287.8c0 103.824 84.176 188 188 188s188-84.176 188-188c0-103.84-84.176-188-188-188S568.002 183.96 568.002 287.8zM146.274 383.832c-10.432-12.944-8.528-31.968 4.304-42.496 12.88-10.576 31.808-8.528 42.192 4.336 73.76 91.232 184.24 143.552 302.992 143.552 36.624 0 72.448-4.976 106.656-14.528-31.696-25.312-56.88-58.48-72.512-96.576-11.248 1.392-22.656 2.112-34.144 2.112-91.472 0-176.224-44.752-226.816-119.664-9.312-13.792-5.744-32.576 7.936-41.952 5.184-3.552 11.024-5.216 16.832-5.216 9.6 0 19.04 4.624 24.832 13.2 39.408 58.416 105.664 93.264 177.2 93.264 6.176 0 12.304-0.272 18.384-0.784-1.408-10.496-2.128-21.2-2.128-32.08 0-132.56 107.456-240 240-240s240 107.44 240 240c0 132.544-107.456 240-240 240-27.632 0-54.16-4.672-78.864-13.264-55.136 23.424-115.28 35.872-177.376 35.872C358.866 549.608 231.474 489.16 146.274 383.832zM23.41 505.112c-10.896-12.56-9.632-31.632 2.848-42.592 12.464-11.008 31.44-9.712 42.304 2.848 106.544 122.816 262.272 193.264 427.2 193.264 164.96 0 320.672-70.48 427.184-193.296 5.936-6.832 14.256-10.336 22.592-10.336 6.992 0 14.032 2.448 19.696 7.456 12.464 10.96 13.76 30.016 2.896 42.576C850.194 641.016 678.034 719 495.762 719 313.522 719 141.346 641.048 23.41 505.112z"  horiz-adv-x="1024" />

    
    <glyph glyph-name="guide" unicode="&#58978;" d="M794.813671 623.911797 229.186329 623.911797c-11.854465 0-21.450937-9.596472-21.450937-20.886439L207.735391 241.181918c0-11.854465 9.596472-20.886439 21.450937-20.886439L361.278942 220.29548l-11.854465 41.772878L250.072767 262.068357 250.072767 582.13892 773.362734 582.13892l0-320.635061-94.271224 0c24.837927-10.725469 47.982359-24.273429 69.433297-41.772878l46.288864 0c11.854465 0 21.450937 9.596472 21.450937 20.886439l0.564498 361.84344C816.264609 614.315325 806.103638 623.911797 794.813671 623.911797zM732.154355 176.829107c-22.579934 21.450937-49.111356 38.385888-77.900772 49.111356-2.257993 1.128997-4.515987 1.128997-6.77398 2.257993-1.128997 0.564498-3.38699 1.128997-4.515987 1.128997-3.951488 1.128997-7.902977 2.822492-11.854465 3.951488-1.128997 0.564498-2.257993 1.128997-3.38699 1.128997l-3.38699 0c-1.128997 0-2.257993-0.564498-3.38699-1.128997-11.289967-6.209482-27.095921-9.596472-42.901874-9.596472-15.805954 0-31.047409 3.38699-42.901874 9.596472-1.128997 0.564498-2.257993 1.128997-3.38699 1.128997l-3.951488 0c-4.515987-1.128997-9.031974-2.257993-13.54796-3.38699-1.693495-0.564498-3.951488-1.128997-5.644983-1.693495-1.693495-1.128997-3.951488-1.128997-6.209482-2.257993-5.644983-2.257993-11.289967-4.515987-16.370452-6.77398-6.77398-3.38699-13.54796-6.209482-19.757442-10.16097l-6.77398 10.16097-6.77398 10.725469-50.240353 78.46527c-3.38699 5.644983-10.16097 7.338479-15.805954 5.080485-6.209482-2.257993-9.031974-8.467475-7.338479-14.676957l10.16097-37.256891 11.854465-41.772878 18.063947-63.788313c0-1.128997 1.128997-2.257993 1.128997-3.38699l0-3.38699c0-3.951488 2.822492-6.209482 6.77398-6.209482l299.184123 0c3.951488 0 6.77398 2.822492 6.77398 6.209482l-1.128997 22.579934C734.412348 174.006615 733.84785 175.70011 732.154355 176.829107zM505.790518 333.195149c0-7.338479 5.644983-12.983462 11.854465-12.983462 2.822492-33.305402 28.789416-66.610805 61.53032-66.610805 32.176406 0 59.272326 33.305402 61.53032 66.610805 6.77398 0 11.854465 6.209482 11.854465 12.983462 0 5.080485-3.38699 9.596472-7.338479 11.289967 2.257993 7.338479 3.951488 15.805954 3.951488 23.144432 0 40.643881-31.047409 73.949283-70.562293 73.949283-38.385888 0-70.562293-32.740904-70.562293-73.949283 0-8.467475 1.128997-15.805954 4.515987-23.144432C508.61301 342.791621 505.790518 338.275634 505.790518 333.195149zM512 896C229.186329 896 0 666.813671 0 384c0-282.813671 229.186329-512 512-512 282.813671 0 512 229.186329 512 512C1024 666.813671 794.813671 896 512 896zM512-85.662624c-259.104741 0-469.098126 209.993385-469.098126 469.098126 0 259.104741 209.993385 469.098126 469.098126 469.098126s469.098126-209.993385 469.098126-469.098126C981.662624 124.895259 771.104741-85.662624 512-85.662624z"  horiz-adv-x="1024" />

    
    <glyph glyph-name="History" unicode="&#58945;" d="M983.04 583.68c-25.6 61.44-61.44 117.76-107.52 163.84s-102.4 81.92-163.84 107.52c-61.44 25.6-128 40.96-199.68 40.96-66.56 0-138.24-15.36-199.68-40.96-61.44-25.6-117.76-61.44-163.84-107.52-46.08-46.08-81.92-102.4-107.52-163.84-25.6-61.44-40.96-128-40.96-199.68s15.36-138.24 40.96-199.68c25.6-61.44 61.44-117.76 107.52-163.84 46.08-46.08 102.4-81.92 163.84-107.52 61.44-25.6 128-40.96 199.68-40.96s138.24 15.36 199.68 40.96c61.44 25.6 117.76 61.44 163.84 107.52 46.08 46.08 81.92 102.4 107.52 163.84 25.6 61.44 40.96 128 40.96 199.68s-15.36 138.24-40.96 199.68z m-471.04-629.76c-235.52 0-430.08 194.56-430.08 430.08s194.56 430.08 430.08 430.08c235.52 0 430.08-194.56 430.08-430.08 0-235.52-194.56-430.08-430.08-430.08z m230.4 337.92l-209.92 66.56v276.48c0 20.48-20.48 40.96-40.96 40.96s-40.96-20.48-40.96-40.96v-302.08c0-20.48 15.36-35.84 30.72-40.96h5.12l230.4-71.68h10.24c15.36 0 35.84 10.24 40.96 30.72 5.12 10.24-5.12 35.84-25.6 40.96z"  horiz-adv-x="1024" />

    
    <glyph glyph-name="cancel" unicode="&#59049;" d="M102.855-101.277l894.422 894.422c23.523 23.522 23.523 61.66 0 85.183-23.522 23.523-61.66 23.523-85.183 0L17.672-16.094c-23.523-23.523-23.523-61.66 0-85.183 23.523-23.523 61.66-23.523 85.183 0zM17.672 793.145l894.422-894.422c23.523-23.523 61.66-23.523 85.183 0 23.523 23.522 23.523 61.66 0 85.183L102.855 878.328c-23.522 23.523-61.66 23.523-85.183 0-23.523-23.523-23.523-61.66 0-85.183z"  horiz-adv-x="1024" />

    
    <glyph glyph-name="shanchu_heise" unicode="&#58895;" d="M673.6 380.8l100.8 100.8c16 16 16 43.2 0 60.8-16 16-43.2 16-60.8 0l-100.8-100.8-100.8 100.8c-16 16-43.2 16-60.8 0-16-16-16-43.2 0-60.8l100.8-100.8-100.8-100.8c-16-16-16-43.2 0-60.8 16-16 43.2-16 60.8 0l100.8 100.8 100.8-100.8c16-16 43.2-16 60.8 0s16 43.2 0 60.8l-100.8 100.8zM326.4 99.2L94.4 348.8c-17.6 19.2-17.6 51.2 0 70.4l233.6 249.6c17.6 19.2 54.4 35.2 81.6 35.2h491.2c27.2 0 48-20.8 48-48v-544c0-27.2-20.8-48-48-48H408c-27.2 0-64 16-81.6 35.2z"  horiz-adv-x="1024" />

    
    <glyph glyph-name="ICON_cancel" unicode="&#58902;" d="M354.64 694.72a32 32 0 0 1 32 32 24.64 24.64 0 0 0 24.64 24.64h201.44a24.64 24.64 0 0 0 24.64-24.64 32 32 0 0 1 64 0 88.72 88.72 0 0 1-88.64 88.64H411.28a88.72 88.72 0 0 1-88.64-88.64 32 32 0 0 1 32-32zM829.36 672.48H194.64a32 32 0 1 1 0-64h18.64v-528a128 128 0 0 1 128-128h341.36a128 128 0 0 1 128 128v528h18.64a32 32 0 1 1 0 64z m-82.64-592a64 64 0 0 0-64-64H341.36a64 64 0 0 0-64 64v528h469.28zM373.36 97.52a32 32 0 0 1 32 32V506.48a32 32 0 0 1-64 0v-376.96a32 32 0 0 1 32-32zM512 97.52a32 32 0 0 1 32 32V506.48a32 32 0 0 1-64 0v-376.96a32 32 0 0 1 32-32zM650.64 97.52a32 32 0 0 1 32 32V506.48a32 32 0 0 1-64 0v-376.96a32 32 0 0 1 32-32z"  horiz-adv-x="1024" />

    
    <glyph glyph-name="apply" unicode="&#58889;" d="M512-128C229.226667-128 0 101.226667 0 384S229.226667 896 512 896s512-229.226667 512-512-229.226667-512-512-512zM475.733333 699.008c-38.698667 1.024-103.616 0.917333-143.509333-91.669333-36.992-85.546667 22.805333-192.810667 46.933333-222.570667 21.098667-26.090667 21.909333-48.533333 7.829334-60.224a107.328 107.328 0 0 0-41.770667-20.949333c-80.789333-28.586667-139.349333-68.437333-148.8-104.746667-9.450667-36.309333-4.010667-66.688 18.282667-86.421333 25.6-22.656 146.986667-55.658667 234.944-47.125334a653.824 653.824 0 0 0 36.544 144.021334C495.210667 227.114667 597.333333 298.666667 597.333333 298.666667a87.082667 87.082667 0 0 0-43.264 18.069333c-24.384 22.314667-17.408 34.048 7.829334 62.848 29.888 34.133333 80.213333 145.749333 44.373333 230.4C566.464 704 508.650667 698.133333 475.733333 699.008z m266.453334-299.157333l69.034666-50.176 12.544 17.258666a42.666667 42.666667 0 1 1-69.034666 50.176l-12.544-17.258666z m43.968-84.672l12.544 17.258666-69.034667 50.154667-12.544-17.258667 69.034667-50.154666z m-12.544-17.258667l-69.034667 50.154667-137.941333-189.866667-15.637334-94.122667 84.672 43.968 137.941334 189.866667z"  horiz-adv-x="1024" />

    
    <glyph glyph-name="search" unicode="&#59298;" d="M479 559.7c-78.8 0-143-64.1-143-143 0-78.8 64.1-143 143-143 78.8 0 143 64.1 143 143-0.1 78.9-64.2 143-143 143zM512 896C229.2 896 0 666.8 0 384s229.2-512 512-512 512 229.2 512 512S794.8 896 512 896z m237.5-749.2c-7-7-16.2-10.5-25.5-10.5s-18.4 3.5-25.5 10.5l-94.9 94.9c-36.2-25.9-79.4-39.8-124.7-39.8-57.4 0-111.4 22.4-152 63s-63 94.6-63 152 22.4 111.4 63 152 94.6 63 152 63c57.4 0 111.4-22.4 152-63s63-94.6 63-152c0-45.1-13.8-88.1-39.4-124.1l94.9-94.9c14.1-14.2 14.1-37 0.1-51.1z"  horiz-adv-x="1024" />

    
    <glyph glyph-name="history" unicode="&#59062;" d="M512 384h156.444444a42.666667 42.666667 0 0 0 0-85.333333h-199.111111c-11.776 0-22.471111 4.778667-30.151111 12.515555A42.524444 42.524444 0 0 0 426.666667 341.333333v199.111111a42.666667 42.666667 0 0 0 85.333333 0V384zM221.098667 611.555556H270.222222a42.666667 42.666667 0 0 0 0-85.333334h-142.222222c-11.776 0-22.471111 4.778667-30.151111 12.515556A42.524444 42.524444 0 0 0 85.333333 568.888889v142.222222a42.666667 42.666667 0 0 0 85.333334 0v-28.302222C257.137778 773.262222 378.254222 824.888889 511.089778 824.888889 753.578667 824.888889 952.888889 616.504889 952.888889 356.465778c0-238.051556-203.747556-441.799111-441.799111-441.799111C251.050667-85.333333 42.666667 113.976889 42.666667 356.465778a42.666667 42.666667 0 0 0 85.333333 0c0-194.503111 169.358222-356.465778 383.089778-356.465778 190.919111 0 356.465778 165.546667 356.465778 356.465778C867.555556 570.197333 705.592889 739.555556 511.089778 739.555556c-115.484444 0-219.050667-46.819556-289.991111-128z"  horiz-adv-x="1024" />

    
    <glyph glyph-name="apply1" unicode="&#58908;" d="M704.432157 694.14299a230.77174 230.77174 0 0 1-26.110612 51.346606 24.126718 24.126718 0 0 0 6.612982 33.512886 24.212047 24.212047 0 0 0 33.55555-6.570317 278.043896 278.043896 0 0 0 45.074939-116.623138 24.041389 24.041389 0 0 0-20.414915-27.262552 24.53203 24.53203 0 0 0-3.455817 0 24.105386 24.105386 0 0 0-24.105386 20.692234 230.2811 230.2811 0 0 1-11.156741 44.904281z m59.303517-114.767236c-18.836333-137.827345-135.907447-241.117857-275.228046-242.781769a24.126718 24.126718 0 0 0-4.26644-0.639966c-6.527653-0.38398-13.012642-0.895952-19.433634-1.535918-225.396026-22.39881-396.778921-212.170062-395.882969-438.312715a24.084054 24.084054 0 0 0-48.210772 0c-0.68263 214.729926 139.683246 404.543842 345.432316 467.111185a279.729139 279.729139 0 0 0-160.631467 253.661191 279.729139 279.729139 0 0 0 161.82607 252.914564A280.561095 280.561095 0 0 0 665.372899 830.903725c9.023521-8.810199 9.727483-23.060108 1.599915-32.702263a24.126718 24.126718 0 0 0-32.531605-4.053118 232.627642 232.627642 0 0 1-284.528884 10.239456 231.731689 231.731689 0 0 1-80.76371-272.582852 232.371655 232.371655 0 0 1 244.275023-146.01891 232.137001 232.137001 0 0 1 202.485243 199.840051 24.062722 24.062722 0 0 0 38.568618 15.977817c6.826304-5.226389 10.346117-13.695272 9.21551-22.228152z m214.175288-443.283117a24.084054 24.084054 0 1 0 0-48.146776h-190.496546v-189.749919a24.084054 24.084054 0 0 0-48.210772 0V87.924529H548.685765a24.084054 24.084054 0 1 0 0 48.125443h190.560543v189.771252a24.084054 24.084054 0 0 0 48.210772 0v-189.771252h190.453882z"  horiz-adv-x="1024" />

    
    <glyph glyph-name="iconDeleteitem" unicode="&#58951;" d="M512-96C246.896-96 32 118.896 32 384 32 649.104 246.896 864 512 864c265.104 0 480-214.896 480-480 0-265.104-214.896-480-480-480z m216.832 696.832c-12.128 12.128-31.808 12.128-43.936 0l-172-172-172.032 172.032c-12.08 12.08-31.664 12.08-43.744 0-12.064-12.08-12.064-31.664 0-43.744l172.048-172.032L297.104 213.04c-12.128-12.128-12.128-31.792 0-43.936 12.144-12.128 31.808-12.128 43.936 0l172.048 172.064L683.2 171.056c12.08-12.064 31.648-12.064 43.728 0 12.08 12.08 12.08 31.664 0 43.744L556.832 384.896l172 172c12.128 12.128 12.128 31.808 0 43.936z"  horiz-adv-x="1024" />

    
    <glyph glyph-name="history1" unicode="&#61461;" d="M1008 384.938c0.506-273.28-222.36-496.744-495.64-496.936-118.03-0.084-226.446 41.06-311.644 109.822-22.154 17.88-23.81 51.082-3.678 71.214l22.534 22.534c17.218 17.218 44.706 19.102 63.782 3.968C346.124 45.73 425.562 16 512 16c203.41 0 368 164.622 368 368 0 203.41-164.622 368-368 368-97.628 0-186.298-37.938-252.136-99.864l101.508-101.508c20.16-20.16 5.882-54.628-22.626-54.628H48c-17.674 0-32 14.326-32 32V818.746c0 28.508 34.468 42.786 54.628 22.628l98.744-98.744C258.418 827.728 379.104 880 512 880c273.62 0 495.494-221.56 496-495.062z m-361.824-157.568l19.646 25.26c16.276 20.926 12.506 51.084-8.42 67.358L576 383.302V592c0 26.51-21.49 48-48 48h-32c-26.51 0-48-21.49-48-48v-271.302l130.818-101.748c20.926-16.274 51.082-12.506 67.358 8.42z"  horiz-adv-x="1024" />

    
    <glyph glyph-name="remark" unicode="&#58948;" d="M256-32c-102.4 0-160 57.6-160 153.6V646.4c0 51.2 12.8 89.6 44.8 115.2 32 25.6 70.4 44.8 128 38.4h448c19.2 0 32-12.8 32-32s-12.8-32-32-32h-448c-38.4 0-64-6.4-83.2-19.2-19.2-19.2-25.6-38.4-25.6-70.4V128c0-64 32-89.6 96-89.6h531.2c38.4 0 76.8 12.8 76.8 96V505.6c0 19.2 12.8 32 32 32s32-12.8 32-32V128c0-140.8-89.6-160-140.8-160H256zM416 256c-6.4 0-19.2 0-25.6 6.4-6.4 12.8-6.4 38.4 0 51.2l448 448c12.8 12.8 32 12.8 44.8 0s12.8-32 0-44.8l-448-448c0-12.8-12.8-12.8-19.2-12.8z"  horiz-adv-x="1024" />

    
    <glyph glyph-name="apply2" unicode="&#58883;" d="M944.64 847.36H588.8c-25.6 0-43.52-20.48-43.52-43.52v-353.28c0-25.6 20.48-43.52 43.52-43.52h353.28c25.6 0 43.52 20.48 43.52 43.52V803.84c2.56 23.04-17.92 43.52-40.96 43.52zM435.2 360.96H79.36c-25.6 0-43.52-20.48-43.52-43.52v-353.28c0-25.6 20.48-43.52 43.52-43.52H435.2c25.6 0 43.52 20.48 43.52 43.52V314.88c0 25.6-20.48 46.08-43.52 46.08z m0 486.4H79.36c-25.6 0-43.52-20.48-43.52-43.52v-353.28c0-25.6 20.48-43.52 43.52-43.52H435.2c25.6 0 43.52 20.48 43.52 43.52V803.84c0 23.04-20.48 43.52-43.52 43.52z m509.44-486.4H588.8c-25.6 0-43.52-20.48-43.52-43.52v-353.28c0-25.6 20.48-43.52 43.52-43.52h353.28c25.6 0 43.52 20.48 43.52 43.52V314.88c2.56 25.6-17.92 46.08-40.96 46.08z m20.48-381.44c0-23.04-17.92-40.96-40.96-40.96H606.72c-23.04 0-40.96 17.92-40.96 40.96V296.96c0 23.04 17.92 40.96 40.96 40.96h320c23.04 0 40.96-17.92 40.96-40.96v-317.44z"  horiz-adv-x="1024" />

    
    <glyph glyph-name="quedingx" unicode="&#58921;" d="M908.8 748.324571a54.857143 54.857143 0 1 0 84.114286-70.363428l-546.157715-653.531429a54.857143 54.857143 0 0 0-79.872-4.534857L35.401143 334.701714a54.857143 54.857143 0 0 0 75.483428 79.579429L400.091429 139.702857l508.708571 608.621714z"  horiz-adv-x="1024" />

    
    <glyph glyph-name="lianjieshangchuan" unicode="&#58896;" d="M246.690909 281.6h148.945455v-60.509091H246.690909C162.909091 221.090909 93.090909 295.563636 93.090909 384s69.818182 162.909091 153.6 162.909091h148.945455v-60.509091H246.690909c-55.854545 0-97.745455-46.545455-97.745454-102.4 0-55.854545 41.890909-102.4 97.745454-102.4zM637.672727 486.4h-148.945454V546.909091h148.945454c83.781818 0 153.6-74.472727 153.6-162.909091s-69.818182-162.909091-153.6-162.909091h-148.945454v60.509091h148.945454c55.854545 0 97.745455 46.545455 97.745455 102.4 0 55.854545-41.890909 102.4-97.745455 102.4zM302.545455 407.272727h279.272727v-55.854545h-279.272727z"  horiz-adv-x="1024" />

    
    <glyph glyph-name="add" unicode="&#59121;" d="M512 896C229.376 896 0 666.624 0 384s229.376-512 512-512 512 229.376 512 512S794.624 896 512 896z m238.08-570.88h-179.2v-179.2c0-32.768-26.112-58.88-58.88-58.88s-58.88 26.112-58.88 58.88v179.2h-179.2c-32.768 0-58.88 26.112-58.88 58.88s26.112 58.88 58.88 58.88h179.2v179.2c0 32.768 26.112 58.88 58.88 58.88s58.88-26.112 58.88-58.88v-179.2h179.2c32.768 0 58.88-26.112 58.88-58.88s-26.112-58.88-58.88-58.88z"  horiz-adv-x="1024" />

    
    <glyph glyph-name="ddh_confirm" unicode="&#58901;" d="M451.2 134.4c-19.2-19.2-44.8-22.4-67.2-9.6-3.2 3.2-9.6 12.8-9.6 12.8l-227.2 227.2c-22.4 22.4-22.4 54.4 0 76.8s57.6 19.2 80-3.2l188.8-188.8L768 608c22.4 22.4 57.6 25.6 80 3.2 22.4-22.4 22.4-54.4 0-76.8L451.2 134.4zM512 896C230.4 896 0 668.8 0 384c0-281.6 230.4-512 512-512s512 230.4 512 512c0 284.8-230.4 512-512 512z m0 0"  horiz-adv-x="1024" />

    
    <glyph glyph-name="down" unicode="&#58880;" d="M474.56 159.41999999999996L100.28 533.6999999899999c-20.7 20.7-20.70000001 54.18 0 74.88000001 20.64 20.64 54.18 20.70000001 74.88-1e-8L512 271.73999999l336.84 336.84c20.64 20.64 54.18 20.70000001 74.88 1e-8s20.64-54.18 0-74.88000001L549.44 159.41999999999996c-20.7-20.63999999-54.18-20.64-74.88 0z"  horiz-adv-x="1024" />

    
    <glyph glyph-name="HotelDetails_icn_Internet" unicode="&#58894;" d="M111.7696 462.6432c-12.544 13.824-12.5952 36.2496 0.6144 49.3056 50.3296 49.664 108.032 89.7024 170.7008 118.2208A551.6288 551.6288 0 0 0 512 680.2432c78.5408 0 156.3136-17.0496 228.9152-50.0736a593.5616 593.5616 0 0 0 170.7008-118.272c13.2608-13.0048 13.1584-35.4816 0.6144-49.2544a31.5392 31.5392 0 0 0-46.1312-0.768 529.1008 529.1008 0 0 1-149.8112 102.912A492.288 492.288 0 0 1 512 609.536c-70.144 0-139.52-15.1552-204.288-44.6464A529.2032 529.2032 0 0 1 157.9008 461.824a31.5392 31.5392 0 0 0-46.1312 0.768zM221.696 391.68c-13.4144-12.8-13.312-35.2768-0.768-49.0496 12.544-13.824 32.8192-13.6704 46.4384-1.0752A374.9376 374.9376 0 0 0 366.7968 408.064c46.0288 20.992 95.3856 31.744 145.2032 31.744 49.8176 0 99.1744-10.752 145.2032-31.744 36.1472-16.4864 69.632-38.912 99.4304-66.56 13.6192-12.544 33.8944-12.6976 46.4384 1.1264s12.6464 36.3008-0.8192 49.0496a439.2448 439.2448 0 0 1-120.4224 81.7152A409.2928 409.2928 0 0 1 512 510.464a409.2928 409.2928 0 0 1-169.8304-37.12c-43.9296-19.968-84.5824-47.616-120.4224-81.7152zM331.264 271.2064c-13.824-12.2368-13.7216-34.816-1.1776-48.5888 12.544-13.824 32.768-13.568 47.0016-1.8432 15.0016 12.288 31.3856 22.528 48.7936 30.5152A207.616 207.616 0 0 0 512 270.0288c29.5936 0 58.88-6.4 86.1696-18.7904 17.408-7.936 33.7408-18.176 48.7424-30.5152 14.1824-11.7248 34.4576-11.9808 47.0016 1.8432 12.5952 13.824 12.6976 36.352-1.1776 48.5888a285.0816 285.0816 0 0 1-69.9392 45.3632A266.9568 266.9568 0 0 1 512 340.8896c-37.9904 0-75.6224-8.2432-110.7456-24.2176a285.0304 285.0304 0 0 1-69.9392-45.4144zM512 36.5568a58.5216 58.5216 0 1 1 0 117.0432 58.5216 58.5216 0 0 1 0-117.0432z"  horiz-adv-x="1024" />

    
    <glyph glyph-name="copy-l" unicode="&#58906;" d="M192-85.333333C128-81.066667 81.066667-29.866667 85.333333 34.133333V563.2C81.066667 627.2 128 678.4 192 682.666667h473.6c59.733333-4.266667 106.666667-55.466667 102.4-119.466667v-533.333333c4.266667-59.733333-42.666667-115.2-106.666667-119.466667h-469.333333zM170.666667 576v-554.666667c0-12.8 8.533333-21.333333 21.333333-21.333333h469.333333c12.8 0 21.333333 8.533333 21.333334 21.333333v554.666667c0 12.8-8.533333 21.333333-21.333334 21.333333h-469.333333c-12.8 0-21.333333-8.533333-21.333333-21.333333zM298.666667 85.333333c-25.6 0-42.666667 17.066667-42.666667 42.666667s17.066667 42.666667 42.666667 42.666667h256c25.6 0 42.666667-17.066667 42.666666-42.666667s-17.066667-42.666667-42.666666-42.666667H298.666667z m554.666666 0V725.333333c0 25.6-17.066667 42.666667-42.666666 42.666667H256c0 46.933333 38.4 85.333333 85.333333 85.333333h512c46.933333 0 85.333333-38.4 85.333334-85.333333v-597.333333c0-46.933333-38.4-85.333333-85.333334-85.333334zM298.666667 256c-25.6 0-42.666667 17.066667-42.666667 42.666667s17.066667 42.666667 42.666667 42.666666h256c25.6 0 42.666667-17.066667 42.666666-42.666666s-17.066667-42.666667-42.666666-42.666667H298.666667z m0 170.666667c-25.6 0-42.666667 17.066667-42.666667 42.666666s17.066667 42.666667 42.666667 42.666667h256c25.6 0 42.666667-17.066667 42.666666-42.666667s-17.066667-42.666667-42.666666-42.666666H298.666667z"  horiz-adv-x="1024" />

    


  </font>
</defs>
</svg>
